<svg xmlns="http://www.w3.org/2000/svg" width="196.725" height="60" viewBox="0 0 196.725 60">
  <g id="Group_15" data-name="Group 15" transform="translate(-1521.871 -21.19)">
    <g id="Group_14" data-name="Group 14">
      <path id="Path_31" data-name="Path 31" d="M1536.425,69.825a2.7,2.7,0,0,1-1.017-.421l-11.385-11.041q-.822-.777-1.174-1.15a4.21,4.21,0,0,1-.665-.987,2.883,2.883,0,0,1-.313-1.328V53.312a2.839,2.839,0,0,1,.332-1.344,4.309,4.309,0,0,1,.627-.94q.293-.306,1.232-1.181l11.346-11.333a1.584,1.584,0,0,1,.978-.324,1.245,1.245,0,0,1,.959.405,1.409,1.409,0,0,1,.371.987V41.4a3.381,3.381,0,0,1-.039.534c-.026.162-.052.3-.078.421a1.379,1.379,0,0,1-.195.421,2.321,2.321,0,0,0-.2.34,1.607,1.607,0,0,1-.294.356c-.169.173-.268.27-.293.291s-.157.141-.391.356-.366.335-.392.357l-8.763,9.066a.658.658,0,0,0,0,1.166l8.763,8.742q.117.1.392.34t.372.341c.064.064.169.167.312.307a2.68,2.68,0,0,1,.294.324c.051.076.124.183.215.324a1.208,1.208,0,0,1,.176.388c.026.119.052.259.078.421a3.381,3.381,0,0,1,.039.534v2.04a1.366,1.366,0,0,1-.371.955A1.2,1.2,0,0,1,1536.425,69.825Z" fill="#ee4036"/>
      <path id="Path_32" data-name="Path 32" d="M1547.465,81.158q-.352,0-.352-.842a.731.731,0,0,1,.02-.129.941.941,0,0,0,.019-.162l9.155-57.7q.2-1.134.7-1.134h5.36c.261,0,.392.271.392.81a.982.982,0,0,1-.039.324l-9.194,57.733q-.2,1.132-.627,1.133Z" fill="#ee4036"/>
      <path id="Path_33" data-name="Path 33" d="M1571.448,74.52a.975.975,0,0,1-.782-.275,2.141,2.141,0,0,1-.235-1.247V29.48a2.143,2.143,0,0,1,.235-1.247.979.979,0,0,1,.782-.275h5.674a.982.982,0,0,1,.782.275,2.143,2.143,0,0,1,.235,1.247V46.706a.975.975,0,0,0,.137.518c.09.151.175.227.254.227h11.737c.078,0,.169-.082.274-.243a.969.969,0,0,0,.156-.534V29.48a2.011,2.011,0,0,1,.255-1.23.954.954,0,0,1,.763-.292h5.751a.929.929,0,0,1,.744.275,2.151,2.151,0,0,1,.235,1.247V73a2.149,2.149,0,0,1-.235,1.247.926.926,0,0,1-.744.275h-5.751a1.455,1.455,0,0,1-.548-.081.774.774,0,0,1-.352-.437,2.577,2.577,0,0,1-.156-1V53.214q0-.679-.431-.68h-11.62q-.391,0-.391.68V73a2.013,2.013,0,0,1-.255,1.231.958.958,0,0,1-.762.291Z" fill="#ee4036"/>
      <path id="Path_34" data-name="Path 34" d="M1613.116,74.52a.883.883,0,0,1-.724-.308,2.091,2.091,0,0,1-.254-1.246V33.981q0-.81-.43-.81H1604.9a2.369,2.369,0,0,1-.567-.048.563.563,0,0,1-.314-.324,2.028,2.028,0,0,1-.137-.858V29.383a1.908,1.908,0,0,1,.236-1.15.977.977,0,0,1,.782-.275h22.1a.926.926,0,0,1,.743.275,1.91,1.91,0,0,1,.235,1.15v2.558a1.565,1.565,0,0,1-.215,1.02,1.086,1.086,0,0,1-.763.21h-6.69c-.288,0-.431.27-.431.81V72.966a2.091,2.091,0,0,1-.254,1.263.96.96,0,0,1-.763.291Z" fill="#ee4036"/>
      <path id="Path_35" data-name="Path 35" d="M1633.618,74.52q-.939,0-.939-1.586v-.162l1.76-42.968q.039-1.781.978-1.846h6.182a1.763,1.763,0,0,1,.979.324,2.005,2.005,0,0,1,.586,1.2l6.613,30.631a.33.33,0,0,0,.136.194.162.162,0,0,0,.2,0,.216.216,0,0,0,.1-.194l6.651-30.534q.351-1.554,1.526-1.619h6.26q.939.064.939,1.846l1.838,42.968v.194q0,1.554-.977,1.554h-4.3q-.939,0-1.018-1.748l-1.212-33.255c0-.129-.04-.2-.118-.226s-.131.011-.156.1l-7.121,33.578q-.313,1.554-1.33,1.554h-2.543q-.939,0-1.33-1.554l-6.925-33.416c-.027-.129-.079-.151-.157-.065a.39.39,0,0,0-.039.195l-1.252,33.092q0,1.747-.9,1.748Z" fill="#ee4036"/>
      <path id="Path_36" data-name="Path 36" d="M1676.733,74.52a.922.922,0,0,1-.743-.275,2.141,2.141,0,0,1-.235-1.247V29.48a2.143,2.143,0,0,1,.235-1.247.926.926,0,0,1,.743-.275h5.751a.926.926,0,0,1,.743.275,2.143,2.143,0,0,1,.235,1.247V68.66q0,.711.548.712h10.173a1.042,1.042,0,0,1,.743.227,1.535,1.535,0,0,1,.234,1.036v2.59a1.609,1.609,0,0,1-.234,1.052,1,1,0,0,1-.743.243Z" fill="#ee4036"/>
      <path id="Path_37" data-name="Path 37" d="M1704.042,69.825a1.18,1.18,0,0,1-.939-.4,1.5,1.5,0,0,1-.352-1.019V66.619c0-.15.006-.3.02-.436a2.523,2.523,0,0,1,.058-.373,2.085,2.085,0,0,1,.117-.34c.052-.118.1-.216.137-.292a2.239,2.239,0,0,1,.2-.291c.091-.118.157-.205.195-.259s.118-.145.236-.275a2.754,2.754,0,0,1,.254-.259c.051-.043.156-.134.312-.275a3.31,3.31,0,0,0,.314-.308l8.8-9.034a.844.844,0,0,0,.313-.615.651.651,0,0,0-.352-.55l-8.725-8.743a5.262,5.262,0,0,0-.45-.4,4.107,4.107,0,0,1-.431-.389c-.065-.075-.175-.188-.332-.34a1.23,1.23,0,0,1-.293-.372c-.04-.1-.1-.227-.177-.388a1.717,1.717,0,0,1-.156-.5,3.944,3.944,0,0,1-.039-.583V39.517a1.335,1.335,0,0,1,.352-.955,1.236,1.236,0,0,1,.939-.372,1.906,1.906,0,0,1,.978.388l11.385,11.075q.9.842,1.214,1.165a4.393,4.393,0,0,1,.645.939,2.759,2.759,0,0,1,.332,1.327v1.587c0,.173-.007.329-.019.47a1.471,1.471,0,0,1-.118.437,2.841,2.841,0,0,0-.137.373,1.066,1.066,0,0,1-.234.372,1.462,1.462,0,0,0-.235.324,1.691,1.691,0,0,1-.313.372c-.183.184-.293.3-.333.34s-.175.173-.411.389-.378.345-.43.388l-11.307,11.333A1.89,1.89,0,0,1,1704.042,69.825Z" fill="#ee4036"/>
    </g>
  </g>
</svg>
