<svg xmlns="http://www.w3.org/2000/svg" width="24.812" height="30" viewBox="0 0 24.812 30">
  <path id="Path_42" data-name="Path 42" d="M2583.467,58.942V55.4q0-1.128-.655-1.128a1.057,1.057,0,0,0-.744.361v5.052a1.057,1.057,0,0,0,.744.361q.656,0,.655-1.1Zm4.15-2.752h1.489v-.767q0-1.151-.745-1.15t-.744,1.15Zm-12.88-6v1.579h-1.8v9.542h-1.669V51.769h-1.76V50.19Zm4.534,2.842v8.279h-1.511v-.9a2.4,2.4,0,0,1-1.715,1.015.886.886,0,0,1-.947-.631,3.858,3.858,0,0,1-.135-1.218V53.032h1.489v6.091a3.421,3.421,0,0,0,.022.586c.015.226.128.338.338.338q.452,0,.948-.7V53.032Zm5.684,2.5v3.293a5.858,5.858,0,0,1-.158,1.647,1.155,1.155,0,0,1-1.2.947,2.043,2.043,0,0,1-1.534-.924v.812h-1.511V50.19h1.511v3.632a2,2,0,0,1,1.534-.9,1.155,1.155,0,0,1,1.2.947A5.97,5.97,0,0,1,2584.955,55.536Zm5.662,2.91v.2a7.555,7.555,0,0,1-.045.97,2.11,2.11,0,0,1-.339.9,2.033,2.033,0,0,1-1.8.9,2.165,2.165,0,0,1-1.827-.857,3.167,3.167,0,0,1-.474-1.94V55.717a3.3,3.3,0,0,1,.451-1.94,2.143,2.143,0,0,1,1.8-.857,2.023,2.023,0,0,1,1.759.857,3.23,3.23,0,0,1,.474,1.94v1.714h-3V58.9q0,1.151.767,1.15a.654.654,0,0,0,.677-.586c0-.015,0-.068.011-.158s.011-.214.011-.372v-.485Zm-10.173-18.587v3.519q0,1.151-.722,1.151T2579,43.378V39.859q0-1.173.722-1.172T2580.444,39.859Zm12.023,16.083a28.841,28.841,0,0,0-.429-5.865,3.085,3.085,0,0,0-.97-1.657,3.051,3.051,0,0,0-1.714-.779,127.618,127.618,0,0,0-18.564,0,3.016,3.016,0,0,0-1.726.779,3.116,3.116,0,0,0-.958,1.657,28.221,28.221,0,0,0-.451,5.865,27.623,27.623,0,0,0,.451,5.865,3.172,3.172,0,0,0,.958,1.646,2.956,2.956,0,0,0,1.7.79q3.09.338,9.294.338t9.293-.338a2.954,2.954,0,0,0,1.7-.79,3.171,3.171,0,0,0,.958-1.646A27.605,27.605,0,0,0,2592.467,55.942Zm-17.031-14.684,2.031-6.677h-1.692l-1.151,4.4-1.2-4.4h-1.759l.541,1.557.519,1.556a30.892,30.892,0,0,1,1.037,3.564v4.534h1.669V41.258Zm6.519,1.827V40.153a3.347,3.347,0,0,0-.473-1.963,2.1,2.1,0,0,0-1.76-.857,2.025,2.025,0,0,0-1.759.857,3.341,3.341,0,0,0-.474,1.963v2.932a3.34,3.34,0,0,0,.474,1.962,2.024,2.024,0,0,0,1.759.858,2.1,2.1,0,0,0,1.76-.858A3.221,3.221,0,0,0,2581.955,43.085Zm4.083,2.707h1.511V37.446h-1.511v6.383q-.5.7-.947.7c-.226,0-.346-.121-.361-.361a3.409,3.409,0,0,1-.023-.587V37.446H2583.2v6.609a4.222,4.222,0,0,0,.135,1.241.95.95,0,0,0,.97.609,2.524,2.524,0,0,0,1.737-1.015v.9Z" transform="translate(-2567.655 -34.581)" fill="#3d58a6"/>
</svg>
